<svg id="Capa_1" enable-background="new 0 0 511.993 511.993" height="512" viewBox="0 0 511.993 511.993" width="512" xmlns="http://www.w3.org/2000/svg"><g><path d="m422.511 0h-333.029c-49.417 0-89.48 40.063-89.48 89.479v333.03c0 49.416 40.063 89.479 89.479 89.479h333.029c49.417 0 89.479-40.063 89.479-89.479v-333.03c.002-49.416-40.061-89.479-89.478-89.479zm48.273 422.509c0 26.619-21.654 48.273-48.273 48.273h-333.029c-26.619 0-48.273-21.654-48.273-48.273v-333.03c0-26.619 21.654-48.273 48.273-48.273h333.029c26.619 0 48.273 21.654 48.273 48.273z" fill="#eab1b7"/><g fill="#e4989d"><path d="m22.651 422.514v-333.03c0-49.416 40.063-89.479 89.479-89.479h-22.648c-49.417 0-89.479 40.063-89.479 89.479v333.029c0 49.416 40.063 89.479 89.479 89.479h22.649c-49.417.001-89.48-40.062-89.48-89.478z"/><path d="m422.511 470.787h22.649c26.619 0 48.273-21.654 48.273-48.273v-333.03c0-26.619-21.654-48.273-48.273-48.273h-22.649c26.619 0 48.273 21.654 48.273 48.273v333.029c0 26.62-21.654 48.274-48.273 48.274z"/></g><g><path d="m335.525 255.994 67.955-67.955c11.466-11.466 11.466-30.056 0-41.523l-38.006-38.006c-11.466-11.466-30.056-11.466-41.523 0l-67.955 67.955-67.955-67.955c-11.466-11.466-30.057-11.466-41.523 0l-38.006 38.006c-11.466 11.466-11.466 30.057 0 41.523l67.955 67.955-67.955 67.955c-11.466 11.466-11.466 30.056 0 41.523l38.006 38.006c11.466 11.466 30.056 11.466 41.523 0l67.955-67.955 67.955 67.955c11.466 11.466 30.056 11.466 41.523 0l38.006-38.006c11.466-11.466 11.466-30.057 0-41.523z" fill="#dd636e"/><g fill="#da4a54"><path d="m273.57 194.039 85.528-85.528c1.006-1.006 2.082-1.891 3.188-2.72-11.5-8.626-27.874-7.741-38.334 2.72l-67.955 67.955z"/><path d="m181.665 403.477-38.006-38.006c-11.466-11.466-11.466-30.057 0-41.523l67.955-67.955-67.955-67.955c-11.466-11.466-11.466-30.056 0-41.523l38.006-38.006c1.006-1.006 2.082-1.891 3.188-2.72-11.501-8.626-27.874-7.741-38.334 2.72l-38.006 38.006c-11.466 11.466-11.466 30.057 0 41.523l67.955 67.955-67.955 67.955c-11.466 11.466-11.466 30.056 0 41.523l38.006 38.006c10.46 10.461 26.834 11.346 38.334 2.72-1.105-.829-2.182-1.714-3.188-2.72z"/><path d="m359.098 403.477-85.528-85.528-17.573 17.573 67.955 67.955c10.46 10.461 26.834 11.346 38.334 2.72-1.106-.829-2.182-1.714-3.188-2.72z"/></g></g></g></svg>